<?xml version="1.0" encoding="UTF-8" standalone="no"?>
<svg
   version="1.0"
   width="48pt"
   height="47.999996pt"
   viewBox="0 0 48 47.999996"
   preserveAspectRatio="xMidYMid meet"
   id="svg828"
   xmlns="http://www.w3.org/2000/svg"
   xmlns:svg="http://www.w3.org/2000/svg">
  <defs
     id="defs832" />
  <g
     transform="matrix(0.03860988,0,0,-0.03876822,-14.671476,63.15343)"
     fill="#000000"
     stroke="none"
     id="g826">
    <path
       d="m 910,1614 c -44,-19 -484,-455 -511,-506 -26,-50 -25,-138 1,-192 27,-56 462,-490 512,-510 48,-20 118,-20 166,-1 47,20 495,464 524,520 30,57 28,131 -5,187 -37,63 -463,483 -509,502 -47,20 -132,20 -178,0 z m 196,-354 c 17,0 19,-31 2,-48 -7,-7 -23,-12 -37,-12 -24,0 -61,-25 -61,-42 0,-4 7,-8 16,-8 24,0 14,-53 -13,-65 -23,-10 -39,-60 -50,-160 -4,-41 -1,-55 15,-75 41,-50 160,-26 183,38 8,20 6,21 -11,12 -51,-27 -120,3 -120,54 0,35 31,169 43,184 5,6 21,12 35,12 24,0 25,-1 19,-52 -4,-29 -10,-72 -13,-95 -6,-41 -6,-43 19,-43 33,0 38,9 57,100 14,66 20,76 43,84 17,6 30,6 36,0 5,-5 -2,-65 -19,-147 -39,-192 -77,-237 -202,-237 -74,0 -117,25 -147,84 L 891.57952,890.38005 897,985 c 20,92 20,94 1,98 -29,8 -19,49 15,65 15,7 27,18 27,25 0,38 100,105 138,92 8,-3 20,-5 28,-5 z m -262,-36 c 22,-21 20,-51 -4,-66 -17,-11 -17,-14 -5,-28 12,-13 11,-27 -4,-98 l -18,-82 h 29 c 28,0 35,-13 20,-37 -4,-6 -30,-15 -58,-18 -71,-10 -80,3 -59,90 19,84 19,85 -6,85 -15,0 -20,5 -17,23 2,17 13,24 48,33 42,10 43,11 23,22 -31,17 -39,49 -17,73 21,23 47,24 68,3 z"
       id="path824"
       style="fill:#dd083b;fill-opacity:1" />
  </g>
</svg>
